<svg width="718" height="545" viewBox="0 0 718 545" fill="none" xmlns="http://www.w3.org/2000/svg">
<path opacity="0.5" d="M718 38L200 38C89.5431 37.9999 5.32071e-05 127.543 4.35506e-05 238C3.38941e-05 348.457 89.5431 438 200 438L718 438L718 38Z" fill="#E6EDF7"/>
<g filter="url(#filter0_d_6_603)">
<path d="M532.594 220.186C532.594 265.749 495.657 302.686 450.094 302.686C404.53 302.686 367.594 265.749 367.594 220.186C367.594 174.622 404.53 137.686 450.094 137.686C495.657 137.686 532.594 174.622 532.594 220.186Z" fill="white"/>
</g>
<g opacity="0.6" filter="url(#filter1_d_6_603)">
<path d="M462.38 237.718C462.065 235.929 460.439 234.248 458.75 233.966C457.061 233.683 455.277 232.577 454.637 231.57C453.997 230.562 453.749 228.474 454.206 226.823C454.663 225.172 453.824 222.988 452.336 221.945C450.848 220.903 448.509 220.863 447.113 221.857C445.717 222.85 443.673 223.332 442.511 223.075C441.348 222.818 439.697 221.518 438.852 220.028C438.006 218.538 435.869 217.586 434.08 217.902C432.29 218.217 430.608 219.843 430.322 221.532C430.037 223.221 428.931 225.007 427.927 225.647C426.922 226.286 424.835 226.532 423.185 226.076C421.534 225.62 419.349 226.457 418.307 227.946C417.265 229.434 417.225 231.772 418.218 233.169C419.212 234.565 419.691 236.61 419.432 237.775C419.173 238.94 417.881 240.592 416.391 241.435C414.9 242.278 413.948 244.413 414.264 246.202C414.579 247.992 416.204 249.674 417.894 249.96C419.583 250.244 421.364 251.354 422.006 252.358C422.647 253.361 422.894 255.447 422.438 257.098C421.981 258.748 422.819 260.933 424.307 261.975C425.796 263.017 428.134 263.057 429.53 262.064C430.926 261.071 432.971 260.589 434.134 260.847C435.297 261.106 436.947 262.41 437.792 263.897C438.638 265.383 440.775 266.334 442.564 266.019C444.354 265.703 446.036 264.079 446.322 262.393C446.607 260.706 447.712 258.919 448.716 258.276C449.72 257.635 451.809 257.388 453.459 257.846C455.11 258.302 457.295 257.464 458.336 255.976C459.379 254.487 459.419 252.148 458.426 250.753C457.432 249.357 456.949 247.313 457.206 246.15C457.464 244.988 458.764 243.336 460.254 242.491C461.744 241.645 462.696 239.508 462.38 237.718ZM439.879 250.788C434.997 251.649 430.355 248.398 429.496 243.527C428.635 238.646 431.886 234.003 436.767 233.142C441.637 232.283 446.281 235.534 447.142 240.415C448.001 245.287 444.75 249.929 439.879 250.788Z" fill="url(#paint0_linear_6_603)"/>
<path d="M489.318 219.651C489.156 218.734 488.323 217.873 487.458 217.729C486.593 217.584 485.679 217.017 485.351 216.501C485.024 215.985 484.896 214.915 485.131 214.07C485.364 213.224 484.935 212.105 484.172 211.571C483.41 211.037 482.212 211.017 481.497 211.526C480.782 212.034 479.735 212.282 479.139 212.15C478.544 212.018 477.698 211.352 477.265 210.589C476.832 209.826 475.737 209.338 474.82 209.5C473.904 209.661 473.042 210.494 472.896 211.359C472.749 212.225 472.183 213.14 471.668 213.467C471.154 213.795 470.085 213.921 469.239 213.687C468.393 213.453 467.274 213.882 466.74 214.645C466.206 215.407 466.186 216.605 466.695 217.32C467.204 218.036 467.45 219.083 467.317 219.68C467.184 220.277 466.522 221.123 465.759 221.555C464.995 221.987 464.508 223.08 464.669 223.997C464.831 224.914 465.663 225.776 466.529 225.922C467.394 226.068 468.307 226.636 468.635 227.151C468.964 227.664 469.09 228.733 468.856 229.578C468.623 230.424 469.052 231.543 469.814 232.077C470.577 232.611 471.775 232.631 472.49 232.123C473.205 231.614 474.252 231.367 474.848 231.499C475.444 231.632 476.289 232.3 476.722 233.061C477.155 233.823 478.25 234.31 479.167 234.148C480.083 233.987 480.945 233.155 481.092 232.291C481.238 231.427 481.804 230.511 482.318 230.182C482.832 229.854 483.902 229.727 484.747 229.962C485.594 230.195 486.713 229.766 487.246 229.004C487.78 228.241 487.801 227.043 487.292 226.328C486.783 225.613 486.536 224.566 486.667 223.97C486.799 223.375 487.466 222.529 488.229 222.096C488.992 221.662 489.479 220.568 489.318 219.651ZM477.791 226.346C475.29 226.787 472.912 225.122 472.472 222.627C472.031 220.126 473.696 217.748 476.197 217.307C478.692 216.867 481.071 218.532 481.512 221.033C481.952 223.528 480.286 225.906 477.791 226.346Z" fill="url(#paint1_linear_6_603)"/>
</g>
<path fill-rule="evenodd" clip-rule="evenodd" d="M373.071 384.824C374.268 383.905 375.45 382.966 376.613 382.008L377.661 383.243C376.469 384.226 375.259 385.188 374.032 386.128L373.071 384.824ZM380.054 379.071C381.183 378.073 382.294 377.056 383.385 376.02L384.599 377.109C383.481 378.17 382.343 379.212 381.186 380.235L380.054 379.071ZM365.712 390.072C366.967 389.242 368.208 388.389 369.433 387.515L370.306 388.884C369.051 389.78 367.78 390.653 366.495 391.504L365.712 390.072ZM386.595 372.864C387.644 371.795 388.672 370.71 389.679 369.608L391.048 370.538C390.016 371.668 388.963 372.78 387.888 373.875L386.595 372.864ZM358.053 394.77C359.354 394.033 360.642 393.274 361.917 392.492L362.608 393.982C361.303 394.783 359.984 395.56 358.652 396.314L358.053 394.77ZM392.629 366.259C393.587 365.131 394.523 363.987 395.436 362.828L396.947 363.591C396.012 364.778 395.053 365.951 394.071 367.107L392.629 366.259ZM350.163 398.88C351.496 398.244 352.818 397.585 354.13 396.901L354.636 398.497C353.293 399.196 351.938 399.872 350.574 400.522L350.163 398.88ZM398.093 359.323C398.951 358.146 399.786 356.954 400.596 355.75L402.235 356.338C401.405 357.573 400.549 358.793 399.67 360L398.093 359.323ZM342.118 402.371C343.473 401.84 344.819 401.284 346.157 400.704L346.474 402.389C345.105 402.983 343.727 403.552 342.34 404.095L342.118 402.371ZM402.94 352.116C403.691 350.902 404.416 349.676 405.116 348.438L406.865 348.847C406.149 350.115 405.406 351.371 404.637 352.615L402.94 352.116ZM333.989 405.221C335.35 404.799 336.706 404.351 338.055 403.879L338.182 405.638C336.802 406.122 335.416 406.58 334.023 407.011L333.989 405.221ZM325.841 407.417C327.204 407.104 328.562 406.765 329.916 406.4L329.857 408.218C328.472 408.591 327.083 408.938 325.69 409.257L325.841 407.417ZM407.121 344.721C407.759 343.48 408.371 342.229 408.956 340.968L410.799 341.196C410.2 342.488 409.573 343.769 408.92 345.04L407.121 344.721ZM317.756 408.949C319.102 408.748 320.446 408.52 321.787 408.266L321.544 410.125C320.174 410.385 318.8 410.618 317.424 410.824L317.756 408.949ZM410.615 337.191C411.135 335.939 411.627 334.679 412.093 333.411L414.01 333.46C413.534 334.758 413.029 336.048 412.498 337.329L410.615 337.191ZM309.772 409.826C311.097 409.734 312.421 409.615 313.744 409.47L313.325 411.356C311.973 411.504 310.62 411.626 309.267 411.72L309.772 409.826ZM413.395 329.619C413.797 328.359 414.173 327.092 414.521 325.818L416.494 325.693C416.138 326.995 415.754 328.291 415.342 329.58L413.395 329.619ZM301.964 410.056C303.259 410.071 304.554 410.059 305.85 410.021L305.262 411.919C303.939 411.957 302.617 411.97 301.295 411.955L301.964 410.056ZM415.463 322.052C415.606 321.421 415.742 320.789 415.872 320.155L417.875 319.903C417.743 320.551 417.603 321.197 417.457 321.841L415.463 322.052ZM294.379 409.661C295.63 409.778 296.883 409.869 298.137 409.935L297.39 411.831C296.111 411.764 294.832 411.671 293.556 411.551L294.379 409.661ZM287.041 408.664C288.247 408.88 289.456 409.07 290.667 409.234L289.772 411.117C288.537 410.949 287.305 410.755 286.076 410.536L287.041 408.664ZM279.985 407.097C281.147 407.407 282.313 407.692 283.483 407.951L282.452 409.81C281.261 409.545 280.073 409.255 278.889 408.939L279.985 407.097ZM272.007 412.431L267.766 403.982L279.401 402.157L276.559 406.106C276.57 406.109 276.582 406.113 276.594 406.117L275.438 407.942C275.384 407.925 275.329 407.908 275.274 407.89L272.007 412.431Z" fill="#BDBFC8"/>
<path fill-rule="evenodd" clip-rule="evenodd" d="M47.2234 282.846C47.7387 283.884 48.2789 284.909 48.8436 285.919L47.3242 286.768C46.7457 285.733 46.1923 284.684 45.6645 283.62L47.2234 282.846ZM50.6116 288.91C51.2252 289.892 51.8629 290.859 52.5242 291.81L51.095 292.804C50.4175 291.829 49.7642 290.838 49.1355 289.832L50.6116 288.91ZM44.4391 276.481C44.8519 277.565 45.2904 278.637 45.7541 279.697L44.1594 280.395C43.6845 279.309 43.2354 278.211 42.8126 277.101L44.4391 276.481ZM54.5762 294.612C55.2824 295.529 56.0117 296.428 56.7637 297.31L55.4391 298.439C54.6686 297.536 53.9213 296.614 53.1976 295.675L54.5762 294.612ZM42.2808 269.879C42.5881 270.998 42.9217 272.107 43.2809 273.206L41.6265 273.747C41.2586 272.622 40.9171 271.485 40.6024 270.339L42.2808 269.879ZM59.0824 299.898C59.8748 300.74 60.6892 301.563 61.5252 302.368L60.3183 303.622C59.4617 302.798 58.6272 301.954 57.8151 301.091L59.0824 299.898ZM40.7612 263.097C40.9611 264.241 41.1875 265.377 41.4401 266.504L39.7417 266.885C39.4831 265.731 39.2513 264.568 39.0467 263.397L40.7612 263.097ZM64.0854 304.713C64.9561 305.471 65.8476 306.211 66.7595 306.93L65.6819 308.296C64.7476 307.56 63.8341 306.802 62.9419 306.025L64.0854 304.713ZM39.888 256.204C39.98 257.363 40.0988 258.516 40.2439 259.662L38.5172 259.881C38.3686 258.708 38.2471 257.527 38.153 256.341L39.888 256.204ZM69.5422 309.015C70.4818 309.683 71.4408 310.331 72.4189 310.958L71.48 312.424C70.4781 311.782 69.4956 311.118 68.533 310.433L69.5422 309.015ZM39.6603 249.257C39.6447 250.419 39.656 251.577 39.6937 252.729L37.9541 252.786C37.9155 251.607 37.904 250.422 37.9199 249.234L39.6603 249.257ZM40.0704 242.314C39.9489 243.474 39.8543 244.63 39.7862 245.784L38.0487 245.681C38.1184 244.501 38.2152 243.318 38.3393 242.133L40.0704 242.314ZM75.3868 312.759C76.3874 313.334 77.4062 313.887 78.4427 314.417L77.6496 315.966C76.5882 315.423 75.5449 314.857 74.5201 314.268L75.3868 312.759ZM41.1017 235.443C40.8781 236.585 40.6809 237.727 40.5097 238.866L38.7885 238.608C38.9635 237.443 39.165 236.276 39.3936 235.108L41.1017 235.443ZM81.5761 315.928C82.6238 316.402 83.6882 316.855 84.7688 317.285L84.1257 318.902C83.0197 318.462 81.9303 317.999 80.8578 317.513L81.5761 315.928ZM42.735 228.676C42.4125 229.798 42.116 230.919 41.8452 232.041L40.1533 231.632C40.43 230.486 40.7329 229.341 41.0623 228.195L42.735 228.676ZM88.0282 318.494C89.12 318.87 90.2273 319.224 91.3496 319.555L90.8579 321.224C89.7102 320.886 88.5777 320.525 87.4607 320.139L88.0282 318.494ZM44.9384 222.077C44.5221 223.17 44.1313 224.264 43.7656 225.359L42.1147 224.808C42.4881 223.69 42.8871 222.573 43.312 221.458L44.9384 222.077ZM94.696 320.459C95.2608 320.599 95.8291 320.732 96.4009 320.86L96.0219 322.558C95.4375 322.428 94.8566 322.292 94.2793 322.149L94.696 320.459ZM47.6772 215.684C47.1752 216.737 46.6977 217.793 46.2445 218.85L44.6447 218.164C45.1071 217.086 45.5941 216.009 46.1062 214.935L47.6772 215.684ZM50.9194 209.518C50.3366 210.53 49.7775 211.545 49.2419 212.563L47.7015 211.753C48.2475 210.715 48.8173 209.68 49.4112 208.649L50.9194 209.518ZM54.626 203.605C53.9654 204.578 53.3279 205.554 52.7133 206.534L51.2386 205.61C51.8646 204.612 52.5137 203.617 53.1862 202.627L54.626 203.605ZM51.9516 196.714L61.4308 193.379L59.5798 203.256L56.6476 200.741C56.6405 200.751 56.6333 200.761 56.6262 200.771L55.222 199.742C55.2555 199.696 55.289 199.651 55.3225 199.605L51.9516 196.714Z" fill="#BDBFC8"/>
<g filter="url(#filter2_d_6_603)">
<path d="M180.607 87.5C180.607 133.063 143.671 170 98.1074 170C52.5439 170 15.6074 133.063 15.6074 87.5C15.6074 41.9365 52.5439 5 98.1074 5C143.671 5 180.607 41.9365 180.607 87.5Z" fill="white"/>
</g>
<path d="M77.0764 54.6477V45.3264H69.9623L69.8944 50.7596C69.8774 52.1518 69.6058 53.5441 68.9945 54.6477H68.0098V58.7735H69.9963V56.4644H76.3293V58.7735H78.3158V54.6477H77.0764ZM71.7621 50.9124L71.83 47.1431H75.0899V54.6477H70.981C71.4734 53.646 71.7281 52.4575 71.7621 50.9124Z" fill="#202020"/>
<path d="M87.121 54.7156C86.6456 54.7156 86.4249 54.4609 86.4249 54.0025V50.9633C86.4249 48.9429 85.1684 47.7883 82.9782 47.7883C80.771 47.7883 79.3957 48.9938 79.3957 50.8954V51.0143H81.3313V50.8954C81.3313 50.0635 81.8916 49.5881 82.9273 49.5881C83.946 49.5881 84.4893 50.0635 84.4893 50.9294V51.3878L82.0613 51.7274C80.2107 51.9821 79.3278 52.7801 79.3278 54.1553C79.3278 55.7174 80.5163 56.6682 82.4009 56.6682C83.4706 56.6682 84.3365 56.3456 84.9477 55.7343C85.3213 56.2097 85.9325 56.4644 86.7135 56.4644H87.6983V54.7156H87.121ZM82.5367 55.0212C81.7557 55.0212 81.2464 54.6817 81.2464 54.1383C81.2464 53.6629 81.6539 53.3234 82.4009 53.2215L84.4893 52.9159V54.0025C84.0988 54.6477 83.3857 55.0212 82.5367 55.0212Z" fill="#202020"/>
<path d="M88.7694 56.4644H90.688V53.0857H94.0667V56.4644H96.0023V48.009H94.0667V51.3369H90.688V48.009H88.7694V56.4644Z" fill="#202020"/>
<path d="M97.9717 56.4644H99.8903V53.0857H103.269V56.4644H105.205V48.009H103.269V51.3369H99.8903V48.009H97.9717V56.4644Z" fill="#202020"/>
<path d="M111.487 50.7596H109.127V47.9921H107.208V56.4644H111.487C113.371 56.4644 114.509 55.3269 114.509 53.6969V53.5271C114.509 51.8972 113.388 50.7596 111.487 50.7596ZM115.256 47.9921V56.4644H117.191V47.9921H115.256ZM112.59 53.6799C112.59 54.3251 112.217 54.7326 111.402 54.7326H109.127V52.4914H111.402C112.217 52.4914 112.59 52.9329 112.59 53.5441V53.6799Z" fill="#202020"/>
<path d="M126.224 52.9329V51.252C126.224 49.1806 124.798 47.7883 122.608 47.7883C120.401 47.7883 118.923 49.1806 118.923 51.269V53.2045C118.923 55.3099 120.401 56.6682 122.642 56.6682C124.696 56.6682 126.122 55.5306 126.224 53.8327H124.306C124.289 54.41 123.593 54.8854 122.659 54.8854C121.504 54.8854 120.842 54.2402 120.842 53.1366V52.9329H126.224ZM122.608 49.5711C123.66 49.5711 124.306 50.2502 124.306 51.3369V51.3538H120.842V51.3369C120.842 50.2502 121.504 49.5711 122.608 49.5711Z" fill="#202020"/>
<path d="M422.887 189.545C425.533 189.545 427.326 187.837 427.326 185.362V182.118C427.326 179.659 425.516 177.935 422.887 177.935C420.275 177.935 418.465 179.642 418.465 182.118V185.362C418.465 187.837 420.258 189.545 422.887 189.545ZM422.887 187.701C421.35 187.701 420.462 186.83 420.462 185.293V182.22C420.462 180.666 421.35 179.779 422.887 179.779C424.424 179.779 425.328 180.666 425.328 182.22V185.293C425.328 186.779 424.389 187.701 422.887 187.701Z" fill="#202020"/>
<path d="M433.2 181.247C432.296 181.247 431.442 181.554 430.878 182.066C430.93 180.769 431.579 180.154 433.047 179.949L434.566 179.744C435.83 179.574 436.393 179.01 436.393 177.866V177.457H434.481V177.713C434.481 177.935 434.327 178.037 433.952 178.088L432.637 178.242C430.093 178.549 429.086 180.035 429.086 183.535V185.549C429.086 188.059 430.503 189.545 432.893 189.545C435.164 189.545 436.547 188.196 436.547 185.976V184.747C436.547 182.63 435.215 181.247 433.2 181.247ZM434.618 185.908C434.618 187.103 434.02 187.735 432.859 187.735C431.647 187.735 431.015 187.018 431.015 185.601V183.842C431.544 183.313 432.21 183.023 432.91 183.023C434.071 183.023 434.618 183.62 434.618 184.884V185.908Z" fill="#202020"/>
<path d="M443.797 180.82L441.612 186.932L439.324 180.82H437.343V181.11L440.621 189.476L440.553 189.664C440.297 190.398 439.921 190.484 439.392 190.484H438.026V192.242H439.563C441.048 192.242 441.868 191.61 442.38 190.228L445.778 181.11V180.82H443.797Z" fill="#202020"/>
<path d="M452.166 180.82V184.901C451.535 184.986 451.005 185.037 450.578 185.037C449.469 185.037 448.905 184.627 448.905 183.808V180.82H446.976V184.03C446.976 185.72 448.239 186.779 450.271 186.779C450.852 186.779 451.5 186.71 452.166 186.591V189.34H454.113V180.82H452.166Z" fill="#202020"/>
<path d="M463.168 185.788V184.098C463.168 182.015 461.734 180.615 459.531 180.615C457.312 180.615 455.826 182.015 455.826 184.115V186.062C455.826 188.179 457.312 189.545 459.565 189.545C461.631 189.545 463.065 188.401 463.168 186.693H461.239C461.221 187.274 460.521 187.752 459.582 187.752C458.421 187.752 457.756 187.103 457.756 185.993V185.788H463.168ZM459.531 182.408C460.59 182.408 461.239 183.091 461.239 184.184V184.201H457.756V184.184C457.756 183.091 458.421 182.408 459.531 182.408Z" fill="#202020"/>
<path d="M464.87 189.34H466.799V185.942H470.197V189.34H472.143V180.837H470.197V184.184H466.799V180.837H464.87V189.34Z" fill="#202020"/>
<path d="M474.123 189.34H475.882L479.416 183.876V189.34H481.294V180.82H479.536L475.984 186.284V180.82H474.123V189.34Z" fill="#202020"/>
<path d="M490.345 185.788V184.098C490.345 182.015 488.911 180.615 486.709 180.615C484.489 180.615 483.004 182.015 483.004 184.115V186.062C483.004 188.179 484.489 189.545 486.743 189.545C488.809 189.545 490.243 188.401 490.345 186.693H488.416C488.399 187.274 487.699 187.752 486.76 187.752C485.599 187.752 484.933 187.103 484.933 185.993V185.788H490.345ZM486.709 182.408C487.767 182.408 488.416 183.091 488.416 184.184V184.201H484.933V184.184C484.933 183.091 485.599 182.408 486.709 182.408Z" fill="#202020"/>
<g opacity="0.59" filter="url(#filter3_d_6_603)">
<g filter="url(#filter4_i_6_603)">
<path fill-rule="evenodd" clip-rule="evenodd" d="M125.066 80.5815L70.9023 80.5815L70.9023 124.995L70.9023 125.281L70.9089 125.281C71.2289 132.27 83.2284 137.889 97.9841 137.889C112.74 137.889 124.739 132.27 125.059 125.281L125.066 125.281L125.066 124.995L125.066 80.5815Z" fill="url(#paint2_linear_6_603)"/>
</g>
<path d="M125.066 80.7264C125.066 87.273 112.941 92.58 97.9841 92.58C83.0273 92.58 70.9023 87.273 70.9023 80.7264C70.9023 74.1798 83.0273 68.8728 97.9841 68.8728C112.941 68.8728 125.066 74.1798 125.066 80.7264Z" fill="url(#paint3_linear_6_603)"/>
<path fill-rule="evenodd" clip-rule="evenodd" d="M116.865 88.5883C121.702 86.4764 124.464 83.6561 124.464 80.6972C124.464 77.7383 121.702 74.918 116.865 72.8061C112.064 70.71 105.389 69.3983 97.9841 69.3983C90.5789 69.3983 83.9044 70.71 79.1035 72.8061C74.2667 74.918 71.5042 77.7383 71.5042 80.6972C71.5042 83.6561 74.2667 86.4764 79.1035 88.5883C83.9044 90.6844 90.5789 91.9961 97.9841 91.9961C105.389 91.9961 112.064 90.6844 116.865 88.5883ZM97.9841 92.5216C112.941 92.5216 125.066 87.2276 125.066 80.6972C125.066 74.1668 112.941 68.8728 97.9841 68.8728C83.0273 68.8728 70.9023 74.1668 70.9023 80.6972C70.9023 87.2276 83.0273 92.5216 97.9841 92.5216Z" fill="url(#paint4_linear_6_603)"/>
</g>
<g filter="url(#filter5_d_6_603)">
<path d="M237.736 438.564C237.736 484.128 200.8 521.064 155.236 521.064C109.673 521.064 72.7363 484.128 72.7363 438.564C72.7363 393.001 109.673 356.064 155.236 356.064C200.8 356.064 237.736 393.001 237.736 438.564Z" fill="white"/>
</g>
<g filter="url(#filter6_d_6_603)">
<path fill-rule="evenodd" clip-rule="evenodd" d="M177.744 431.418C176.171 431.418 174.896 432.693 174.896 434.266V484.341C174.896 485.913 176.171 487.188 177.744 487.188H178.246C179.818 487.188 181.093 485.913 181.093 484.341V434.266C181.093 432.693 179.818 431.418 178.246 431.418H177.744ZM154.73 434.074C153.158 434.074 151.883 435.349 151.883 436.921V484.34C151.883 485.913 153.158 487.188 154.73 487.188H155.232C156.805 487.188 158.079 485.913 158.079 484.34V436.921C158.079 435.349 156.805 434.074 155.232 434.074H154.73ZM140.377 454.626C140.377 453.053 141.652 451.779 143.224 451.779H143.726C145.299 451.779 146.574 453.053 146.574 454.626V484.34C146.574 485.913 145.299 487.188 143.726 487.188H143.224C141.652 487.188 140.377 485.913 140.377 484.34V454.626ZM128.867 465.249C128.867 463.676 130.142 462.401 131.715 462.401H132.216C133.789 462.401 135.064 463.676 135.064 465.249V484.34C135.064 485.913 133.789 487.188 132.216 487.188H131.715C130.142 487.188 128.867 485.913 128.867 484.34V465.249ZM163.389 444.888C163.389 443.316 164.663 442.041 166.236 442.041H166.738C168.31 442.041 169.585 443.316 169.585 444.888V484.34C169.585 485.913 168.31 487.188 166.738 487.188H166.236C164.663 487.188 163.389 485.913 163.389 484.34V444.888Z" fill="url(#paint5_linear_6_603)" fill-opacity="0.6"/>
</g>
<path d="M128.935 411.371C131.566 411.371 133.349 409.673 133.349 407.211V403.985C133.349 401.54 131.549 399.825 128.935 399.825C126.337 399.825 124.537 401.523 124.537 403.985V407.211C124.537 409.673 126.32 411.371 128.935 411.371ZM128.935 409.537C127.407 409.537 126.524 408.671 126.524 407.143V404.087C126.524 402.542 127.407 401.659 128.935 401.659C130.463 401.659 131.363 402.542 131.363 404.087V407.143C131.363 408.62 130.429 409.537 128.935 409.537Z" fill="#202020"/>
<path d="M142.366 409.418V402.695H140.43V409.418H137.136V402.695H135.218V411.167H141.653V413.391H143.571V409.418H142.366Z" fill="#202020"/>
<path d="M151.599 407.636V405.955C151.599 403.883 150.172 402.491 147.982 402.491C145.775 402.491 144.298 403.883 144.298 405.972V407.907C144.298 410.013 145.775 411.371 148.016 411.371C150.071 411.371 151.497 410.233 151.599 408.536H149.68C149.663 409.113 148.967 409.588 148.033 409.588C146.879 409.588 146.216 408.943 146.216 407.839V407.636H151.599ZM147.982 404.274C149.035 404.274 149.68 404.953 149.68 406.04V406.057H146.216V406.04C146.216 404.953 146.879 404.274 147.982 404.274Z" fill="#202020"/>
<path d="M153.291 411.167H155.209V407.788H158.588V411.167H160.524V402.712H158.588V406.04H155.209V402.712H153.291V411.167Z" fill="#202020"/>
<path d="M167.281 406.906L169.896 402.983V402.695H167.791L165.549 406.074H164.412V402.695H162.493V411.167H164.412V407.788H165.583L167.926 411.167H170.032V410.879L167.281 406.906Z" fill="#202020"/>
<path d="M178.454 409.418C177.978 409.418 177.757 409.164 177.757 408.705V405.666C177.757 403.646 176.501 402.491 174.311 402.491C172.104 402.491 170.728 403.697 170.728 405.598V405.717H172.664V405.598C172.664 404.766 173.224 404.291 174.26 404.291C175.279 404.291 175.822 404.766 175.822 405.632V406.091L173.394 406.43C171.543 406.685 170.66 407.483 170.66 408.858C170.66 410.42 171.849 411.371 173.733 411.371C174.803 411.371 175.669 411.048 176.28 410.437C176.654 410.913 177.265 411.167 178.046 411.167H179.031V409.418H178.454ZM173.869 409.724C173.088 409.724 172.579 409.384 172.579 408.841C172.579 408.366 172.986 408.026 173.733 407.924L175.822 407.619V408.705C175.431 409.35 174.718 409.724 173.869 409.724Z" fill="#202020"/>
<mask id="mask0_6_603" style="mask-type:alpha" maskUnits="userSpaceOnUse" x="140" y="123" width="202" height="225">
<path d="M140.787 123.3H341.645V347.588H140.787V123.3Z" fill="#C4C4C4"/>
</mask>
<g mask="url(#mask0_6_603)">
<path fill-rule="evenodd" clip-rule="evenodd" d="M256.549 181.84C246.213 173.384 231.232 173.588 221.134 182.322L152.452 241.729C151.1 242.898 149.894 244.166 148.835 245.509H143.039V264.087H143.12C143.621 271.371 147.051 278.479 153.369 283.48L225.913 340.904C235.999 348.888 250.331 348.803 260.321 340.7L330.09 284.111C336.5 278.912 339.848 271.548 340.13 264.087H340.202V245.509H333.688C332.645 244.289 331.476 243.141 330.18 242.081L256.549 181.84Z" fill="url(#paint6_linear_6_603)"/>
<path fill-rule="evenodd" clip-rule="evenodd" d="M256.549 164.848C246.213 156.392 231.232 156.596 221.134 165.33L152.452 224.737C151.1 225.906 149.894 227.173 148.835 228.517H143.039V247.095H143.12C143.621 254.379 147.051 261.487 153.369 266.488L225.913 323.912C235.999 331.896 250.331 331.811 260.321 323.708L330.09 267.119C336.5 261.92 339.848 254.555 340.13 247.095H340.202V228.517H333.688C332.645 227.297 331.476 226.149 330.18 225.088L256.549 164.848Z" fill="url(#paint7_linear_6_603)"/>
<path fill-rule="evenodd" clip-rule="evenodd" d="M256.549 147.857C246.213 139.4 231.232 139.604 221.134 148.339L152.452 207.745C151.1 208.915 149.894 210.182 148.835 211.526H143.039V230.104H143.12C143.621 237.388 147.051 244.496 153.369 249.497L225.913 306.92C235.999 314.904 250.331 314.82 260.321 306.717L330.09 250.127C336.5 244.929 339.848 237.564 340.13 230.104H340.202V211.526H333.688C332.645 210.306 331.476 209.157 330.18 208.097L256.549 147.857Z" fill="url(#paint8_linear_6_603)"/>
<path d="M221.134 131.348C231.232 122.613 246.214 122.409 256.549 130.865L330.18 191.106C343.508 202.01 343.465 222.288 330.09 233.136L260.321 289.726C250.331 297.829 235.999 297.913 225.913 289.929L153.369 232.505C140 221.923 139.561 201.904 152.452 190.754L221.134 131.348Z" fill="url(#paint9_linear_6_603)"/>
<g filter="url(#filter7_f_6_603)">
<path d="M240.236 282.896C233.312 292.311 217.37 292.458 204.628 283.226C191.886 273.994 187.17 258.877 194.094 249.463C201.018 240.048 216.96 239.9 229.702 249.133C242.444 258.365 247.16 273.482 240.236 282.896Z" fill="#7BF1DA" fill-opacity="0.4"/>
</g>
</g>
<mask id="mask1_6_603" style="mask-type:alpha" maskUnits="userSpaceOnUse" x="143" y="124" width="198" height="172">
<path d="M221.134 131.348C231.232 122.613 246.214 122.409 256.549 130.865L330.18 191.106C343.508 202.01 343.465 222.288 330.09 233.136L260.321 289.726C250.331 297.829 235.999 297.913 225.913 289.929L153.369 232.505C140 221.923 139.561 201.904 152.452 190.754L221.134 131.348Z" fill="url(#paint10_linear_6_603)"/>
</mask>
<g mask="url(#mask1_6_603)">
<path d="M216.481 165.314C229.287 153.871 248.666 153.658 261.724 164.816L340.823 232.402L261.714 296.468C250.871 305.248 235.321 305.316 224.401 296.631L142.458 231.456L216.481 165.314Z" fill="url(#paint11_linear_6_603)"/>
<g filter="url(#filter8_f_6_603)">
<path d="M213.421 227.251C213.421 243.379 195.465 256.454 173.315 256.454C151.165 256.454 133.209 243.379 133.209 227.251C133.209 211.123 151.165 198.048 173.315 198.048C195.465 198.048 213.421 211.123 213.421 227.251Z" fill="#7BF1DA" fill-opacity="0.6"/>
</g>
<g opacity="0.3" filter="url(#filter9_f_6_603)">
<path d="M224.709 310.788C224.709 302.029 231.862 294.929 240.686 294.929H243.355C252.179 294.929 259.333 302.029 259.333 310.788V330.976C259.333 339.734 252.179 346.834 243.355 346.834H240.686C231.862 346.834 224.709 339.734 224.709 330.976V310.788Z" fill="url(#paint12_linear_6_603)"/>
</g>
<g opacity="0.7" filter="url(#filter10_f_6_603)">
<path d="M246.523 346.479V295.303H250.664L257.438 290.82L300.341 256.454V307.256L280.771 323.693L260.449 339.382L254.051 343.491L246.523 346.479Z" fill="url(#paint13_linear_6_603)" fill-opacity="0.8"/>
</g>
</g>
<mask id="mask2_6_603" style="mask-type:alpha" maskUnits="userSpaceOnUse" x="143" y="124" width="198" height="172">
<path d="M221.343 131.348C231.441 122.613 246.423 122.409 256.758 130.865L330.389 191.106C343.717 202.01 343.674 222.288 330.299 233.136L260.53 289.726C250.54 297.829 236.208 297.913 226.122 289.929L153.578 232.505C140.209 221.923 139.77 201.904 152.661 190.754L221.343 131.348Z" fill="url(#paint14_linear_6_603)"/>
</mask>
<g mask="url(#mask2_6_603)">
<g filter="url(#filter11_f_6_603)">
<path d="M284.812 149.178C284.812 163.788 263.12 175.632 236.363 175.632C209.605 175.632 187.914 163.788 187.914 149.178C187.914 134.568 209.605 122.724 236.363 122.724C263.12 122.724 284.812 134.568 284.812 149.178Z" fill="#7BF1DA" fill-opacity="0.5"/>
</g>
<path fill-rule="evenodd" clip-rule="evenodd" d="M339.024 212.658L339.002 211.548C338.852 204.281 335.661 197.069 329.418 191.981L255.51 131.74C245.565 123.635 231.15 123.83 221.434 132.203L152.493 191.609C146.376 196.88 143.381 204.213 143.456 211.514L143.468 212.658H143.438V262.953H143.444L143.517 264.009C143.999 270.99 147.297 277.799 153.375 282.592L226.192 340.016C235.897 347.669 249.688 347.588 259.3 339.821L329.332 283.231C335.499 278.248 338.718 271.194 338.989 264.044L339.03 262.953H339.06V212.658H339.024ZM340.143 211.525H340.202V264.086H340.129C339.847 271.547 336.486 278.911 330.052 284.11L260.02 340.699C249.993 348.802 235.607 348.887 225.482 340.903L152.665 283.479C146.324 278.478 142.881 271.37 142.379 264.086H142.297V211.526L142.315 211.525C142.313 211.338 142.313 211.15 142.315 210.963C142.392 203.533 145.52 196.117 151.745 190.754L220.685 131.347C230.822 122.613 245.859 122.409 256.234 130.865L330.142 191.106C336.655 196.414 339.987 203.944 340.143 211.525Z" fill="url(#paint15_linear_6_603)"/>
<path d="M193.171 251.996C193.171 252.622 192.66 253.129 192.03 253.129C191.4 253.129 190.889 252.622 190.889 251.996C190.889 251.37 191.4 250.863 192.03 250.863C192.66 250.863 193.171 251.37 193.171 251.996Z" fill="white" fill-opacity="0.3"/>
<path d="M166.253 235.149C166.253 235.775 165.742 236.282 165.112 236.282C164.482 236.282 163.971 235.775 163.971 235.149C163.971 234.524 164.482 234.016 165.112 234.016C165.742 234.016 166.253 234.524 166.253 235.149Z" fill="white" fill-opacity="0.3"/>
<path d="M166.253 206.017C166.253 206.643 165.742 207.15 165.112 207.15C164.482 207.15 163.971 206.643 163.971 206.017C163.971 205.392 164.482 204.885 165.112 204.885C165.742 204.885 166.253 205.392 166.253 206.017Z" fill="white" fill-opacity="0.3"/>
<path d="M158.228 223.743C158.228 224.369 157.717 224.876 157.087 224.876C156.456 224.876 155.945 224.369 155.945 223.743C155.945 223.118 156.456 222.61 157.087 222.61C157.717 222.61 158.228 223.118 158.228 223.743Z" fill="white" fill-opacity="0.3"/>
<path d="M153.31 211.043C153.31 211.669 152.799 212.176 152.169 212.176C151.538 212.176 151.027 211.669 151.027 211.043C151.027 210.418 151.538 209.911 152.169 209.911C152.799 209.911 153.31 210.418 153.31 211.043Z" fill="white" fill-opacity="0.3"/>
<path d="M187.478 201.794C187.478 202.42 186.967 202.927 186.337 202.927C185.706 202.927 185.195 202.42 185.195 201.794C185.195 201.168 185.706 200.661 186.337 200.661C186.967 200.661 187.478 201.168 187.478 201.794Z" fill="white" fill-opacity="0.3"/>
<path d="M211.29 200.661C211.29 201.286 210.779 201.793 210.149 201.793C209.519 201.793 209.008 201.286 209.008 200.661C209.008 200.035 209.519 199.528 210.149 199.528C210.779 199.528 211.29 200.035 211.29 200.661Z" fill="white" fill-opacity="0.3"/>
<path d="M216.464 212.299C216.464 212.925 215.953 213.432 215.323 213.432C214.693 213.432 214.182 212.925 214.182 212.299C214.182 211.674 214.693 211.167 215.323 211.167C215.953 211.167 216.464 211.674 216.464 212.299Z" fill="white" fill-opacity="0.3"/>
<path d="M194.314 178.13C194.314 178.756 193.803 179.263 193.172 179.263C192.542 179.263 192.031 178.756 192.031 178.13C192.031 177.505 192.542 176.998 193.172 176.998C193.803 176.998 194.314 177.505 194.314 178.13Z" fill="white" fill-opacity="0.3"/>
<path d="M205.698 159.773C205.698 160.398 205.188 160.905 204.557 160.905C203.927 160.905 203.416 160.398 203.416 159.773C203.416 159.147 203.927 158.64 204.557 158.64C205.188 158.64 205.698 159.147 205.698 159.773Z" fill="white" fill-opacity="0.3"/>
<path d="M210.15 179.263C210.15 179.889 209.639 180.396 209.008 180.396C208.378 180.396 207.867 179.889 207.867 179.263C207.867 178.638 208.378 178.131 209.008 178.131C209.639 178.131 210.15 178.638 210.15 179.263Z" fill="white" fill-opacity="0.3"/>
<path d="M178.474 178.13C178.474 178.756 177.963 179.263 177.333 179.263C176.702 179.263 176.191 178.756 176.191 178.13C176.191 177.505 176.702 176.998 177.333 176.998C177.963 176.998 178.474 177.505 178.474 178.13Z" fill="white" fill-opacity="0.3"/>
<path d="M163.972 192.61C163.972 193.235 163.461 193.743 162.831 193.743C162.2 193.743 161.689 193.235 161.689 192.61C161.689 191.984 162.2 191.477 162.831 191.477C163.461 191.477 163.972 191.984 163.972 192.61Z" fill="white" fill-opacity="0.3"/>
<path d="M153.31 199.528C153.31 200.154 152.799 200.661 152.169 200.661C151.538 200.661 151.027 200.154 151.027 199.528C151.027 198.903 151.538 198.396 152.169 198.396C152.799 198.396 153.31 198.903 153.31 199.528Z" fill="white" fill-opacity="0.3"/>
<path d="M222.675 276.856C222.675 277.482 222.164 277.989 221.534 277.989C220.904 277.989 220.393 277.482 220.393 276.856C220.393 276.231 220.904 275.723 221.534 275.723C222.164 275.723 222.675 276.231 222.675 276.856Z" fill="white" fill-opacity="0.3"/>
<path d="M252.702 277.989C252.702 278.615 252.191 279.122 251.561 279.122C250.931 279.122 250.42 278.615 250.42 277.989C250.42 277.364 250.931 276.856 251.561 276.856C252.191 276.856 252.702 277.364 252.702 277.989Z" fill="white" fill-opacity="0.3"/>
<path d="M252.702 261.234C252.702 261.859 252.191 262.366 251.561 262.366C250.931 262.366 250.42 261.859 250.42 261.234C250.42 260.608 250.931 260.101 251.561 260.101C252.191 260.101 252.702 260.608 252.702 261.234Z" fill="white" fill-opacity="0.3"/>
<path d="M234.325 251.996C234.325 252.622 233.814 253.129 233.184 253.129C232.554 253.129 232.043 252.622 232.043 251.996C232.043 251.37 232.554 250.863 233.184 250.863C233.814 250.863 234.325 251.37 234.325 251.996Z" fill="white" fill-opacity="0.3"/>
<path d="M275.738 254.262C275.738 254.888 275.227 255.395 274.596 255.395C273.966 255.395 273.455 254.888 273.455 254.262C273.455 253.636 273.966 253.129 274.596 253.129C275.227 253.129 275.738 253.636 275.738 254.262Z" fill="white" fill-opacity="0.3"/>
<path d="M269.784 265.046C269.784 265.671 269.273 266.179 268.643 266.179C268.013 266.179 267.502 265.671 267.502 265.046C267.502 264.42 268.013 263.913 268.643 263.913C269.273 263.913 269.784 264.42 269.784 265.046Z" fill="white" fill-opacity="0.3"/>
<path d="M266.161 239.87C266.161 240.495 265.65 241.002 265.02 241.002C264.39 241.002 263.879 240.495 263.879 239.87C263.879 239.244 264.39 238.737 265.02 238.737C265.65 238.737 266.161 239.244 266.161 239.87Z" fill="white" fill-opacity="0.3"/>
<path d="M247.007 219.831C247.007 220.456 246.496 220.964 245.866 220.964C245.236 220.964 244.725 220.456 244.725 219.831C244.725 219.205 245.236 218.698 245.866 218.698C246.496 218.698 247.007 219.205 247.007 219.831Z" fill="white" fill-opacity="0.3"/>
<path d="M290.747 232.416C290.747 233.041 290.236 233.548 289.606 233.548C288.976 233.548 288.465 233.041 288.465 232.416C288.465 231.79 288.976 231.283 289.606 231.283C290.236 231.283 290.747 231.79 290.747 232.416Z" fill="white" fill-opacity="0.3"/>
<path d="M296.958 249.73C296.958 250.355 296.447 250.862 295.817 250.862C295.187 250.862 294.676 250.355 294.676 249.73C294.676 249.104 295.187 248.597 295.817 248.597C296.447 248.597 296.958 249.104 296.958 249.73Z" fill="white" fill-opacity="0.3"/>
<path d="M286.865 260.1C286.865 260.726 286.354 261.233 285.723 261.233C285.093 261.233 284.582 260.726 284.582 260.1C284.582 259.475 285.093 258.968 285.723 258.968C286.354 258.968 286.865 259.475 286.865 260.1Z" fill="white" fill-opacity="0.3"/>
<path d="M309.382 227.251C309.382 227.877 308.871 228.384 308.241 228.384C307.611 228.384 307.1 227.877 307.1 227.251C307.1 226.626 307.611 226.119 308.241 226.119C308.871 226.119 309.382 226.626 309.382 227.251Z" fill="white" fill-opacity="0.3"/>
<path d="M314.814 208.778C314.814 209.403 314.303 209.91 313.672 209.91C313.042 209.91 312.531 209.403 312.531 208.778C312.531 208.152 313.042 207.645 313.672 207.645C314.303 207.645 314.814 208.152 314.814 208.778Z" fill="white" fill-opacity="0.3"/>
<path d="M323.101 229.517C323.101 230.142 322.59 230.649 321.96 230.649C321.329 230.649 320.818 230.142 320.818 229.517C320.818 228.891 321.329 228.384 321.96 228.384C322.59 228.384 323.101 228.891 323.101 229.517Z" fill="white" fill-opacity="0.3"/>
<path d="M330.605 216.158C330.605 216.784 330.094 217.291 329.464 217.291C328.833 217.291 328.322 216.784 328.322 216.158C328.322 215.533 328.833 215.025 329.464 215.025C330.094 215.025 330.605 215.533 330.605 216.158Z" fill="white" fill-opacity="0.3"/>
<path d="M330.605 198.395C330.605 199.021 330.094 199.528 329.464 199.528C328.833 199.528 328.322 199.021 328.322 198.395C328.322 197.77 328.833 197.262 329.464 197.262C330.094 197.262 330.605 197.77 330.605 198.395Z" fill="white" fill-opacity="0.3"/>
<path d="M299.245 174.499C299.245 175.125 298.734 175.632 298.104 175.632C297.474 175.632 296.963 175.125 296.963 174.499C296.963 173.874 297.474 173.366 298.104 173.366C298.734 173.366 299.245 173.874 299.245 174.499Z" fill="white" fill-opacity="0.3"/>
<path d="M293.032 197.262C293.032 197.888 292.522 198.395 291.891 198.395C291.261 198.395 290.75 197.888 290.75 197.262C290.75 196.637 291.261 196.129 291.891 196.129C292.522 196.129 293.032 196.637 293.032 197.262Z" fill="white" fill-opacity="0.3"/>
<path d="M288.007 187.501C288.007 188.127 287.496 188.634 286.866 188.634C286.236 188.634 285.725 188.127 285.725 187.501C285.725 186.875 286.236 186.368 286.866 186.368C287.496 186.368 288.007 186.875 288.007 187.501Z" fill="white" fill-opacity="0.3"/>
<path d="M274.599 191.477C274.599 192.103 274.088 192.61 273.458 192.61C272.827 192.61 272.316 192.103 272.316 191.477C272.316 190.851 272.827 190.344 273.458 190.344C274.088 190.344 274.599 190.851 274.599 191.477Z" fill="white" fill-opacity="0.3"/>
<path d="M272.068 181.529C272.068 182.154 271.557 182.662 270.926 182.662C270.296 182.662 269.785 182.154 269.785 181.529C269.785 180.903 270.296 180.396 270.926 180.396C271.557 180.396 272.068 180.903 272.068 181.529Z" fill="white" fill-opacity="0.3"/>
<path d="M270.925 162.039C270.925 162.664 270.414 163.172 269.784 163.172C269.154 163.172 268.643 162.664 268.643 162.039C268.643 161.413 269.154 160.906 269.784 160.906C270.414 160.906 270.925 161.413 270.925 162.039Z" fill="white" fill-opacity="0.3"/>
<path d="M270.925 150.221C270.925 150.847 270.414 151.354 269.784 151.354C269.154 151.354 268.643 150.847 268.643 150.221C268.643 149.596 269.154 149.088 269.784 149.088C270.414 149.088 270.925 149.596 270.925 150.221Z" fill="white" fill-opacity="0.3"/>
<path d="M250.417 145.082C250.417 145.708 249.906 146.215 249.276 146.215C248.646 146.215 248.135 145.708 248.135 145.082C248.135 144.456 248.646 143.949 249.276 143.949C249.906 143.949 250.417 144.456 250.417 145.082Z" fill="white" fill-opacity="0.3"/>
<path d="M249.29 159.773C249.29 160.398 248.779 160.905 248.149 160.905C247.519 160.905 247.008 160.398 247.008 159.773C247.008 159.147 247.519 158.64 248.149 158.64C248.779 158.64 249.29 159.147 249.29 159.773Z" fill="white" fill-opacity="0.3"/>
<path d="M257.052 176.998C257.052 177.624 256.541 178.131 255.911 178.131C255.28 178.131 254.77 177.624 254.77 176.998C254.77 176.373 255.28 175.865 255.911 175.865C256.541 175.865 257.052 176.373 257.052 176.998Z" fill="white" fill-opacity="0.3"/>
<path d="M229.361 168.263C229.361 168.889 228.85 169.396 228.219 169.396C227.589 169.396 227.078 168.889 227.078 168.263C227.078 167.638 227.589 167.13 228.219 167.13C228.85 167.13 229.361 167.638 229.361 168.263Z" fill="white" fill-opacity="0.3"/>
<path d="M235.47 149.088C235.47 149.713 234.959 150.22 234.329 150.22C233.698 150.22 233.188 149.713 233.188 149.088C233.188 148.462 233.698 147.955 234.329 147.955C234.959 147.955 235.47 148.462 235.47 149.088Z" fill="white" fill-opacity="0.3"/>
<path d="M222.675 145.082C222.675 145.708 222.164 146.215 221.534 146.215C220.904 146.215 220.393 145.708 220.393 145.082C220.393 144.456 220.904 143.949 221.534 143.949C222.164 143.949 222.675 144.456 222.675 145.082Z" fill="white" fill-opacity="0.3"/>
<path d="M199.902 193.743C199.902 194.369 199.391 194.876 198.76 194.876C198.13 194.876 197.619 194.369 197.619 193.743C197.619 193.118 198.13 192.61 198.76 192.61C199.391 192.61 199.902 193.118 199.902 193.743Z" fill="white" fill-opacity="0.3"/>
<path d="M266.161 275.723C266.161 276.349 265.65 276.856 265.02 276.856C264.39 276.856 263.879 276.349 263.879 275.723C263.879 275.098 264.39 274.591 265.02 274.591C265.65 274.591 266.161 275.098 266.161 275.723Z" fill="white" fill-opacity="0.3"/>
<path d="M263.876 248.598C263.876 249.223 263.365 249.73 262.735 249.73C262.105 249.73 261.594 249.223 261.594 248.598C261.594 247.972 262.105 247.465 262.735 247.465C263.365 247.465 263.876 247.972 263.876 248.598Z" fill="white" fill-opacity="0.3"/>
<path d="M286.865 242.135C286.865 242.761 286.354 243.268 285.723 243.268C285.093 243.268 284.582 242.761 284.582 242.135C284.582 241.51 285.093 241.002 285.723 241.002C286.354 241.002 286.865 241.51 286.865 242.135Z" fill="white" fill-opacity="0.3"/>
<path d="M299.245 219.831C299.245 220.456 298.734 220.964 298.104 220.964C297.474 220.964 296.963 220.456 296.963 219.831C296.963 219.205 297.474 218.698 298.104 218.698C298.734 218.698 299.245 219.205 299.245 219.831Z" fill="white" fill-opacity="0.3"/>
<path fill-rule="evenodd" clip-rule="evenodd" d="M220.702 143.964L234.529 149.454L248.979 144.331L271.324 149.612V181.31L274.476 190.698L285.704 186.822L298.126 173.704L329.818 197.821V216.477L323.026 229.7L322.01 229.186L328.48 216.589L314.493 209.534L321.76 229.248L320.688 229.638L313.569 210.324L309.334 227.607L295.969 249.457L286.594 251.923V261.995L273.707 255.043L265.309 240.992L263.458 249.489L234.191 252.469L251.029 265.305V260.335L269.678 264.479L265.351 277.65L252.17 267.603V278.851L221.355 277.269L191.734 252.51L164.489 235.769L156.358 223.794L151.478 210.609L163.47 206.237L151.072 199.959L162.967 192.27L177.066 176.982H193.402L208.18 178.937L204.253 159.193L227.699 167.888L220.702 143.964ZM227.203 168.913L205.769 160.964L209.302 178.732L227.203 168.913ZM208.413 181.159L209.544 200.465L199.593 192.608L208.413 181.159ZM198.985 191.533L194.215 178.232L207.842 180.036L198.985 191.533ZM192.961 178.114H178.155L187.148 200.793L198.122 192.505L192.961 178.114ZM187.413 202.016L184.591 216.724L209.197 201.639L198.792 193.423L187.413 202.016ZM210.75 201.535L216.235 211.335L184.063 218.402L165.829 235.261L192.232 251.484H232.676L262.518 248.446L264.808 237.933L274.225 253.69L286.594 240.879V250.751L294.848 248.58L288.749 232.185L297.773 219.54L313.129 207.914L328.262 198.064L298.531 175.44L292.634 198.852L273.663 191.858L270.309 181.87L255.838 178.023L248.441 160.191V145.725L234.506 150.665L222.45 145.878L229.239 169.09L209.484 179.926L210.75 201.535ZM249.582 145.638V159.966L256.454 176.532L270.182 162.419V150.507L249.582 145.638ZM270.182 164.05L257.342 177.25L270.182 180.664V164.05ZM297.103 176.438L292.026 196.596L286.728 187.394L297.103 176.438ZM285.763 188L275.804 191.439L290.96 197.026L285.763 188ZM328.677 199.149L314.595 208.314L328.677 215.418V199.149ZM312.524 209.797L299.152 219.92L308.444 226.444L312.524 209.797ZM307.46 227.14L298.324 220.727L290.749 231.343L307.46 227.14ZM290.143 232.663L307.589 228.277L295.726 247.671L290.143 232.663ZM285.453 251.051V243.698L275.935 253.555L285.453 251.051ZM275.651 254.802L285.453 260.09V252.223L275.651 254.802ZM231.825 252.617H193.633L221.365 275.796L231.825 252.617ZM222.437 276.19L251.029 277.658V266.733L232.931 252.937L222.437 276.19ZM164.993 234.485L181.894 218.859L157.816 223.914L164.993 234.485ZM157.866 222.746L183.298 217.406L186.244 202.056L164.012 193.569L165.478 206.415L157.866 222.746ZM164.325 192.475L185.887 200.706L177.121 178.6L164.325 192.475ZM162.876 193.68L164.207 205.338L153.348 199.839L162.876 193.68ZM163.797 207.325L156.93 222.055L152.943 211.282L163.797 207.325ZM186.954 216.606L209.979 202.491L214.494 210.557L186.954 216.606ZM252.17 266.174L264.766 275.776L268.204 265.312L252.17 261.749V266.174ZM252.372 197.316L246.711 221.197L231.709 202.654L252.372 197.316ZM233.702 203.309L246.136 218.677L250.828 198.885L233.702 203.309Z" fill="white" fill-opacity="0.12"/>
</g>
<path fill-rule="evenodd" clip-rule="evenodd" d="M210.182 203.935L205.075 208.735L211.751 223.37C215.423 231.419 218.183 238.246 217.886 238.542C217.589 238.838 211.659 234.793 204.709 229.552L192.073 220.022L186.827 224.741C183.942 227.337 181.846 229.756 182.17 230.115C182.493 230.475 193.027 238.214 205.577 247.312L228.395 263.853L233.366 259.742C236.101 257.481 238.348 254.981 238.361 254.188C238.373 253.394 236.353 248.08 233.874 242.379C231.394 236.677 228.529 230.08 227.509 227.72C226.051 224.346 226.014 223.711 227.336 224.755C240.054 234.804 250.978 242.579 252.377 242.579C254.199 242.579 262.958 234.273 262.018 233.435C258.294 230.119 216.875 199.08 216.203 199.103C215.7 199.12 212.99 201.294 210.182 203.935Z" fill="white" fill-opacity="0.4"/>
<path d="M248.844 168.133L254.291 162.691C257.286 159.697 260.162 157.395 260.679 157.575C261.941 158.009 307.599 194.801 307.599 195.382C307.599 195.632 305.021 197.908 301.871 200.439L296.143 205.04L283.396 194.821C276.384 189.2 270.648 185.143 270.648 185.807C270.648 186.469 273.277 193.673 276.49 201.814L282.333 216.618L276.964 221.303C274.011 223.879 271.238 225.984 270.802 225.98C269.584 225.968 224.188 191.191 223.961 190.097C223.851 189.566 226.173 187.052 229.119 184.51L234.474 179.889L247.784 190.328C255.104 196.07 261.245 200.624 261.431 200.448C261.618 200.271 258.862 192.929 255.307 184.13L248.844 168.133Z" fill="white" fill-opacity="0.4"/>
<path d="M210.455 204.224L210.455 204.224C211.852 202.91 213.224 201.713 214.306 200.845C214.847 200.411 215.311 200.062 215.667 199.824C215.845 199.704 215.989 199.617 216.098 199.56C216.127 199.545 216.15 199.534 216.169 199.525C216.173 199.527 216.177 199.53 216.181 199.532C216.27 199.585 216.399 199.667 216.567 199.779C216.904 200.003 217.381 200.334 217.982 200.76C219.184 201.611 220.869 202.833 222.886 204.312C226.921 207.269 232.276 211.25 237.728 215.335C248.509 223.414 259.633 231.879 261.682 233.669C261.669 233.717 261.643 233.79 261.592 233.891C261.458 234.16 261.207 234.527 260.854 234.969C260.152 235.846 259.103 236.949 257.96 238.033C256.818 239.116 255.593 240.17 254.547 240.949C254.023 241.34 253.55 241.656 253.16 241.873C252.964 241.981 252.796 242.061 252.657 242.113C252.513 242.167 252.423 242.182 252.377 242.182C252.377 242.182 252.372 242.182 252.36 242.18C252.348 242.178 252.332 242.175 252.311 242.17C252.269 242.16 252.213 242.143 252.143 242.117C252.003 242.065 251.822 241.983 251.601 241.871C251.158 241.646 250.579 241.31 249.873 240.87C248.463 239.99 246.577 238.71 244.332 237.112C239.843 233.916 233.938 229.465 227.583 224.443L227.583 224.443C227.412 224.308 227.254 224.193 227.114 224.106C226.98 224.023 226.832 223.946 226.685 223.915C226.531 223.881 226.287 223.884 226.116 224.095C225.981 224.262 225.975 224.471 225.983 224.603C226 224.893 226.12 225.307 226.307 225.822C226.499 226.351 226.778 227.032 227.144 227.877C228.164 230.238 231.029 236.836 233.51 242.538C234.747 245.383 235.87 248.131 236.68 250.265C237.086 251.332 237.412 252.242 237.636 252.932C237.747 253.277 237.832 253.563 237.888 253.784C237.947 254.019 237.964 254.142 237.963 254.182C237.963 254.2 237.953 254.267 237.893 254.397C237.837 254.519 237.75 254.671 237.629 254.852C237.389 255.211 237.035 255.653 236.589 256.149C235.699 257.139 234.468 258.316 233.113 259.436L233.113 259.436L228.379 263.351L205.81 246.99C199.536 242.441 193.765 238.233 189.524 235.116C187.403 233.558 185.664 232.273 184.436 231.356C183.822 230.897 183.337 230.531 182.996 230.269C182.825 230.138 182.692 230.034 182.597 229.958C182.586 229.949 182.575 229.94 182.566 229.933C182.591 229.875 182.632 229.797 182.694 229.697C182.873 229.407 183.179 229.008 183.596 228.527C184.426 227.569 185.659 226.327 187.093 225.037C187.093 225.037 187.093 225.037 187.093 225.037L192.095 220.537L204.47 229.869L204.709 229.552L204.47 229.869C207.948 232.492 211.173 234.818 213.568 236.451C214.765 237.268 215.759 237.915 216.476 238.341C216.833 238.552 217.131 238.716 217.356 238.817C217.465 238.867 217.575 238.91 217.673 238.934C217.721 238.945 217.787 238.957 217.859 238.954C217.925 238.951 218.057 238.933 218.167 238.823C218.265 238.725 218.29 238.608 218.298 238.556C218.308 238.493 218.306 238.432 218.303 238.383C218.296 238.283 218.274 238.167 218.245 238.044C218.187 237.794 218.084 237.458 217.946 237.05C217.668 236.232 217.232 235.092 216.676 233.714C215.561 230.958 213.951 227.233 212.113 223.205L212.113 223.205L205.555 208.83L210.455 204.224ZM182.534 230.022C182.533 230.029 182.532 230.034 182.532 230.034C182.532 230.034 182.532 230.03 182.534 230.022Z" stroke="white" stroke-opacity="0.5" stroke-width="0.795034"/>
<path d="M254.759 163.159L254.759 163.159C256.244 161.675 257.694 160.368 258.828 159.46C259.398 159.004 259.875 158.659 260.229 158.443C260.365 158.36 260.472 158.303 260.551 158.266C260.553 158.268 260.555 158.269 260.557 158.271C260.67 158.346 260.825 158.456 261.024 158.6C261.421 158.889 261.971 159.303 262.655 159.826C264.02 160.872 265.904 162.345 268.132 164.104C272.588 167.621 278.411 172.278 284.196 176.939C289.981 181.601 295.726 186.266 300.024 189.802C302.173 191.57 303.958 193.054 305.205 194.113C305.83 194.643 306.315 195.063 306.642 195.358C306.666 195.38 306.689 195.401 306.711 195.42C306.701 195.43 306.691 195.44 306.68 195.451C306.403 195.726 305.993 196.103 305.478 196.558C304.449 197.466 303.025 198.662 301.456 199.922L296.142 204.191L283.811 194.304L283.81 194.304C280.298 191.488 277.1 189.06 274.775 187.416C273.616 186.596 272.66 185.962 271.986 185.572C271.657 185.381 271.359 185.227 271.123 185.146C271.024 185.113 270.837 185.054 270.634 185.079C270.518 185.094 270.337 185.142 270.185 185.301C270.027 185.467 269.986 185.665 269.986 185.807C269.986 185.927 270.011 186.055 270.031 186.149C270.055 186.257 270.089 186.387 270.13 186.531C270.212 186.821 270.331 187.199 270.48 187.651C270.78 188.555 271.211 189.779 271.742 191.233C272.803 194.141 274.266 197.983 275.874 202.058L275.874 202.058L281.545 216.426L276.529 220.803C275.061 222.084 273.641 223.244 272.539 224.081C271.986 224.5 271.522 224.832 271.174 225.056C271.03 225.15 270.913 225.219 270.824 225.267C270.727 225.212 270.598 225.133 270.435 225.029C270.048 224.781 269.507 224.413 268.83 223.937C267.479 222.988 265.61 221.628 263.396 219.989C258.969 216.713 253.176 212.333 247.413 207.918C241.65 203.503 235.919 199.056 231.616 195.645C229.464 193.938 227.672 192.494 226.413 191.444C225.783 190.918 225.292 190.496 224.957 190.191C224.856 190.098 224.772 190.02 224.705 189.954C224.741 189.894 224.788 189.824 224.847 189.741C225.071 189.424 225.422 189.004 225.881 188.507C226.795 187.517 228.093 186.27 229.551 185.012C229.551 185.012 229.551 185.012 229.551 185.012L234.494 180.747L247.375 190.849C251.038 193.723 254.408 196.301 256.888 198.139C258.127 199.058 259.148 199.796 259.874 200.294C260.236 200.542 260.534 200.738 260.753 200.868C260.859 200.932 260.966 200.991 261.061 201.033C261.104 201.052 261.176 201.081 261.26 201.099C261.302 201.108 261.377 201.12 261.47 201.113C261.559 201.106 261.732 201.074 261.885 200.93C262.023 200.801 262.067 200.652 262.082 200.589C262.099 200.516 262.102 200.453 262.103 200.416C262.103 200.341 262.094 200.272 262.086 200.225C262.069 200.124 262.04 200.006 262.006 199.882C261.937 199.628 261.826 199.278 261.681 198.849C261.39 197.988 260.949 196.771 260.393 195.29C259.28 192.326 257.701 188.285 255.922 183.882L255.922 183.882L249.622 168.291L254.759 163.159ZM260.412 158.18C260.412 158.18 260.413 158.18 260.416 158.181C260.414 158.18 260.412 158.18 260.412 158.18ZM270.662 186.391C270.662 186.39 270.665 186.391 270.672 186.393C270.666 186.392 270.662 186.391 270.662 186.391ZM270.97 225.343C270.969 225.343 270.968 225.343 270.967 225.342C270.983 225.348 270.985 225.35 270.97 225.343ZM224.608 190.145C224.608 190.145 224.609 190.141 224.612 190.132C224.61 190.14 224.608 190.145 224.608 190.145ZM224.532 189.772C224.522 189.759 224.525 189.761 224.535 189.777C224.534 189.775 224.533 189.773 224.532 189.772Z" stroke="white" stroke-opacity="0.5" stroke-width="1.32506"/>
<ellipse cx="182.753" cy="230.256" rx="1.84503" ry="1.83256" fill="white"/>
<ellipse cx="228.265" cy="263.242" rx="1.84503" ry="1.83256" fill="white"/>
<ellipse cx="238.103" cy="254.69" rx="1.84503" ry="1.83256" fill="white"/>
<ellipse cx="218.425" cy="238.808" rx="1.84503" ry="1.83256" fill="white"/>
<ellipse cx="225.804" cy="224.147" rx="1.84503" ry="1.83256" fill="white"/>
<ellipse cx="261.474" cy="200.935" rx="1.84503" ry="1.83256" fill="white"/>
<ellipse cx="270.085" cy="185.053" rx="1.84503" ry="1.83256" fill="white"/>
<ellipse cx="251.634" cy="242.473" rx="1.84503" ry="1.83256" fill="white"/>
<ellipse cx="261.474" cy="233.921" rx="1.84503" ry="1.83256" fill="white"/>
<ellipse cx="192.595" cy="220.482" rx="1.84503" ry="1.83256" fill="white"/>
<ellipse cx="204.894" cy="209.487" rx="1.84503" ry="1.83256" fill="white"/>
<ellipse cx="215.964" cy="199.713" rx="1.84503" ry="1.83256" fill="white"/>
<ellipse cx="224.574" cy="189.94" rx="1.84503" ry="1.83256" fill="white"/>
<ellipse cx="270.085" cy="225.369" rx="1.84503" ry="1.83256" fill="white"/>
<ellipse cx="282.384" cy="215.595" rx="1.84503" ry="1.83256" fill="white"/>
<ellipse cx="295.915" cy="204.6" rx="1.84503" ry="1.83256" fill="white"/>
<ellipse cx="306.986" cy="194.827" rx="1.84503" ry="1.83256" fill="white"/>
<ellipse cx="234.415" cy="180.166" rx="1.84503" ry="1.83256" fill="white"/>
<ellipse cx="250.406" cy="167.949" rx="1.84503" ry="1.83256" fill="white"/>
<ellipse cx="260.245" cy="158.176" rx="1.84503" ry="1.83256" fill="white"/>
<path d="M326.59 85.6244L327.106 84.768L326.59 85.6244ZM375.886 142.292L374.438 130.837L365.241 137.819L375.886 142.292ZM197.836 86.3316C198.265 85.9021 198.731 85.477 199.232 85.0567L197.946 83.5248C197.404 83.9795 196.895 84.4438 196.422 84.9174L197.836 86.3316ZM202.337 82.797C203.376 82.1339 204.504 81.4895 205.715 80.866L204.799 79.0879C203.539 79.7366 202.358 80.4114 201.261 81.1112L202.337 82.797ZM209.271 79.1968C210.431 78.6994 211.646 78.2193 212.912 77.7578L212.228 75.8787C210.929 76.352 209.679 76.8457 208.483 77.3587L209.271 79.1968ZM216.636 76.5005C217.86 76.1177 219.123 75.7509 220.42 75.4012L219.899 73.4701C218.578 73.8265 217.29 74.2006 216.039 74.5917L216.636 76.5005ZM224.249 74.4421C225.51 74.1492 226.798 73.8716 228.111 73.6099L227.721 71.6485C226.387 71.9142 225.078 72.1962 223.796 72.494L224.249 74.4421ZM232.001 72.8942C233.285 72.6768 234.589 72.4742 235.911 72.287L235.631 70.3067C234.291 70.4965 232.969 70.7018 231.667 70.9222L232.001 72.8942ZM239.839 71.7822C241.138 71.632 242.451 71.4964 243.777 71.3757L243.596 69.3839C242.254 69.506 240.924 69.6434 239.609 69.7955L239.839 71.7822ZM247.719 71.0641C249.025 70.9762 250.342 70.9027 251.669 70.8441L251.58 68.8461C250.239 68.9053 248.906 68.9796 247.584 69.0686L247.719 71.0641ZM255.625 70.7144C256.939 70.6862 258.259 70.6727 259.585 70.6742L259.587 68.6742C258.246 68.6727 256.911 68.6864 255.582 68.7149L255.625 70.7144ZM263.546 70.7233C264.862 70.7544 266.182 70.8006 267.505 70.862L267.597 68.8642C266.26 68.802 264.924 68.7553 263.593 68.7238L263.546 70.7233ZM271.455 71.091C272.769 71.1825 274.085 71.2893 275.4 71.4119L275.585 69.4206C274.255 69.2965 272.924 69.1884 271.594 69.0959L271.455 71.091ZM279.336 71.8266C280.646 71.9808 281.955 72.1509 283.26 72.3375L283.543 70.3576C282.221 70.1687 280.896 69.9964 279.57 69.8403L279.336 71.8266ZM287.168 72.9472C288.47 73.1676 289.767 73.4049 291.058 73.6593L291.444 71.697C290.136 71.4391 288.821 71.1986 287.502 70.9753L287.168 72.9472ZM294.927 74.478C296.216 74.7699 297.497 75.0797 298.77 75.4076L299.269 73.4709C297.977 73.1379 296.676 72.8236 295.369 72.5274L294.927 74.478ZM302.58 76.4526C303.848 76.8221 305.106 77.2106 306.351 77.6184L306.974 75.7177C305.707 75.3028 304.428 74.9079 303.139 74.5324L302.58 76.4526ZM310.077 78.9107C311.317 79.3655 312.543 79.8407 313.753 80.3367L314.512 78.4862C313.278 77.9804 312.029 77.4962 310.766 77.033L310.077 78.9107ZM317.372 81.9047C318.573 82.4543 319.756 83.0259 320.919 83.6199L321.829 81.8388C320.639 81.2313 319.431 80.6473 318.204 80.0861L317.372 81.9047ZM324.383 85.4894C324.952 85.814 325.515 86.1444 326.073 86.4808L327.106 84.768C326.534 84.4232 325.957 84.0846 325.374 83.7521L324.383 85.4894ZM326.073 86.4808C326.672 86.8417 327.264 87.2086 327.851 87.5811L328.923 85.8929C328.324 85.5122 327.718 85.1371 327.106 84.768L326.073 86.4808ZM331.321 89.8977C332.468 90.7013 333.591 91.5256 334.689 92.3675L335.906 90.7805C334.786 89.9215 333.64 89.0802 332.468 88.2596L331.321 89.8977ZM337.953 94.9799C339.03 95.879 340.082 96.7936 341.109 97.7207L342.449 96.2363C341.404 95.2923 340.332 94.3606 339.234 93.4443L337.953 94.9799ZM344.157 100.579C345.168 101.561 346.151 102.554 347.108 103.552L348.552 102.169C347.58 101.154 346.58 100.144 345.552 99.1449L344.157 100.579ZM349.954 106.623C350.897 107.675 351.812 108.73 352.698 109.784L354.229 108.496C353.329 107.427 352.401 106.356 351.443 105.288L349.954 106.623ZM355.351 113.033C356.233 114.147 357.083 115.254 357.903 116.351L359.505 115.153C358.674 114.043 357.812 112.92 356.919 111.792L355.351 113.033ZM360.374 119.749C361.203 120.921 361.996 122.074 362.754 123.202L364.414 122.087C363.648 120.947 362.846 119.78 362.006 118.593L360.374 119.749ZM365.05 126.706C365.84 127.941 366.583 129.133 367.281 130.271L368.986 129.227C368.283 128.078 367.533 126.876 366.735 125.628L365.05 126.706ZM369.445 133.87C370.236 135.207 370.948 136.43 371.586 137.52L373.312 136.511C372.677 135.424 371.961 134.195 371.166 132.851L369.445 133.87Z" fill="#BDBFC8"/>
<defs>
<filter id="filter0_d_6_603" x="353.055" y="132.839" width="194.078" height="194.078" filterUnits="userSpaceOnUse" color-interpolation-filters="sRGB">
<feFlood flood-opacity="0" result="BackgroundImageFix"/>
<feColorMatrix in="SourceAlpha" type="matrix" values="0 0 0 0 0 0 0 0 0 0 0 0 0 0 0 0 0 0 127 0" result="hardAlpha"/>
<feOffset dy="9.69272"/>
<feGaussianBlur stdDeviation="7.26954"/>
<feColorMatrix type="matrix" values="0 0 0 0 0 0 0 0 0 0 0 0 0 0 0 0 0 0 0.1 0"/>
<feBlend mode="normal" in2="BackgroundImageFix" result="effect1_dropShadow_6_603"/>
<feBlend mode="normal" in="SourceGraphic" in2="effect1_dropShadow_6_603" result="shape"/>
</filter>
<filter id="filter1_d_6_603" x="411.203" y="207.469" width="83.1455" height="64.6104" filterUnits="userSpaceOnUse" color-interpolation-filters="sRGB">
<feFlood flood-opacity="0" result="BackgroundImageFix"/>
<feColorMatrix in="SourceAlpha" type="matrix" values="0 0 0 0 0 0 0 0 0 0 0 0 0 0 0 0 0 0 127 0" result="hardAlpha"/>
<feOffset dx="1" dy="2"/>
<feGaussianBlur stdDeviation="2"/>
<feColorMatrix type="matrix" values="0 0 0 0 0 0 0 0 0 0 0 0 0 0 0 0 0 0 0.18 0"/>
<feBlend mode="normal" in2="BackgroundImageFix" result="effect1_dropShadow_6_603"/>
<feBlend mode="normal" in="SourceGraphic" in2="effect1_dropShadow_6_603" result="shape"/>
</filter>
<filter id="filter2_d_6_603" x="1.42294" y="0.271839" width="193.369" height="193.369" filterUnits="userSpaceOnUse" color-interpolation-filters="sRGB">
<feFlood flood-opacity="0" result="BackgroundImageFix"/>
<feColorMatrix in="SourceAlpha" type="matrix" values="0 0 0 0 0 0 0 0 0 0 0 0 0 0 0 0 0 0 127 0" result="hardAlpha"/>
<feOffset dy="9.45632"/>
<feGaussianBlur stdDeviation="7.09224"/>
<feColorMatrix type="matrix" values="0 0 0 0 0 0 0 0 0 0 0 0 0 0 0 0 0 0 0.1 0"/>
<feBlend mode="normal" in2="BackgroundImageFix" result="effect1_dropShadow_6_603"/>
<feBlend mode="normal" in="SourceGraphic" in2="effect1_dropShadow_6_603" result="shape"/>
</filter>
<filter id="filter3_d_6_603" x="66.9538" y="66.2404" width="64.693" height="79.5453" filterUnits="userSpaceOnUse" color-interpolation-filters="sRGB">
<feFlood flood-opacity="0" result="BackgroundImageFix"/>
<feColorMatrix in="SourceAlpha" type="matrix" values="0 0 0 0 0 0 0 0 0 0 0 0 0 0 0 0 0 0 127 0" result="hardAlpha"/>
<feOffset dx="1.31618" dy="2.63235"/>
<feGaussianBlur stdDeviation="2.63235"/>
<feColorMatrix type="matrix" values="0 0 0 0 0 0 0 0 0 0 0 0 0 0 0 0 0 0 0.18 0"/>
<feBlend mode="normal" in2="BackgroundImageFix" result="effect1_dropShadow_6_603"/>
<feBlend mode="normal" in="SourceGraphic" in2="effect1_dropShadow_6_603" result="shape"/>
</filter>
<filter id="filter4_i_6_603" x="70.9023" y="80.5815" width="54.1636" height="61.0897" filterUnits="userSpaceOnUse" color-interpolation-filters="sRGB">
<feFlood flood-opacity="0" result="BackgroundImageFix"/>
<feBlend mode="normal" in="SourceGraphic" in2="BackgroundImageFix" result="shape"/>
<feColorMatrix in="SourceAlpha" type="matrix" values="0 0 0 0 0 0 0 0 0 0 0 0 0 0 0 0 0 0 127 0" result="hardAlpha"/>
<feOffset dy="3.78253"/>
<feGaussianBlur stdDeviation="1.89126"/>
<feComposite in2="hardAlpha" operator="arithmetic" k2="-1" k3="1"/>
<feColorMatrix type="matrix" values="0 0 0 0 0.5875 0 0 0 0 0.62875 0 0 0 0 1 0 0 0 1 0"/>
<feBlend mode="normal" in2="shape" result="effect1_innerShadow_6_603"/>
</filter>
<filter id="filter5_d_6_603" x="58.4996" y="351.319" width="193.473" height="193.473" filterUnits="userSpaceOnUse" color-interpolation-filters="sRGB">
<feFlood flood-opacity="0" result="BackgroundImageFix"/>
<feColorMatrix in="SourceAlpha" type="matrix" values="0 0 0 0 0 0 0 0 0 0 0 0 0 0 0 0 0 0 127 0" result="hardAlpha"/>
<feOffset dy="9.49112"/>
<feGaussianBlur stdDeviation="7.11834"/>
<feColorMatrix type="matrix" values="0 0 0 0 0 0 0 0 0 0 0 0 0 0 0 0 0 0 0.1 0"/>
<feBlend mode="normal" in2="BackgroundImageFix" result="effect1_dropShadow_6_603"/>
<feBlend mode="normal" in="SourceGraphic" in2="effect1_dropShadow_6_603" result="shape"/>
</filter>
<filter id="filter6_d_6_603" x="124.919" y="428.786" width="62.7555" height="66.2989" filterUnits="userSpaceOnUse" color-interpolation-filters="sRGB">
<feFlood flood-opacity="0" result="BackgroundImageFix"/>
<feColorMatrix in="SourceAlpha" type="matrix" values="0 0 0 0 0 0 0 0 0 0 0 0 0 0 0 0 0 0 127 0" result="hardAlpha"/>
<feOffset dx="1.31618" dy="2.63235"/>
<feGaussianBlur stdDeviation="2.63235"/>
<feColorMatrix type="matrix" values="0 0 0 0 0 0 0 0 0 0 0 0 0 0 0 0 0 0 0.18 0"/>
<feBlend mode="normal" in2="BackgroundImageFix" result="effect1_dropShadow_6_603"/>
<feBlend mode="normal" in="SourceGraphic" in2="effect1_dropShadow_6_603" result="shape"/>
</filter>
<filter id="filter7_f_6_603" x="164.401" y="215.803" width="105.527" height="100.753" filterUnits="userSpaceOnUse" color-interpolation-filters="sRGB">
<feFlood flood-opacity="0" result="BackgroundImageFix"/>
<feBlend mode="normal" in="SourceGraphic" in2="BackgroundImageFix" result="shape"/>
<feGaussianBlur stdDeviation="13.2506" result="effect1_foregroundBlur_6_603"/>
</filter>
<filter id="filter8_f_6_603" x="80.2067" y="145.046" width="186.216" height="164.41" filterUnits="userSpaceOnUse" color-interpolation-filters="sRGB">
<feFlood flood-opacity="0" result="BackgroundImageFix"/>
<feBlend mode="normal" in="SourceGraphic" in2="BackgroundImageFix" result="shape"/>
<feGaussianBlur stdDeviation="26.5011" result="effect1_foregroundBlur_6_603"/>
</filter>
<filter id="filter9_f_6_603" x="215.434" y="285.654" width="53.1743" height="70.4561" filterUnits="userSpaceOnUse" color-interpolation-filters="sRGB">
<feFlood flood-opacity="0" result="BackgroundImageFix"/>
<feBlend mode="normal" in="SourceGraphic" in2="BackgroundImageFix" result="shape"/>
<feGaussianBlur stdDeviation="4.6377" result="effect1_foregroundBlur_6_603"/>
</filter>
<filter id="filter10_f_6_603" x="230.623" y="240.553" width="85.6192" height="121.827" filterUnits="userSpaceOnUse" color-interpolation-filters="sRGB">
<feFlood flood-opacity="0" result="BackgroundImageFix"/>
<feBlend mode="normal" in="SourceGraphic" in2="BackgroundImageFix" result="shape"/>
<feGaussianBlur stdDeviation="7.95034" result="effect1_foregroundBlur_6_603"/>
</filter>
<filter id="filter11_f_6_603" x="161.413" y="96.2227" width="149.9" height="105.91" filterUnits="userSpaceOnUse" color-interpolation-filters="sRGB">
<feFlood flood-opacity="0" result="BackgroundImageFix"/>
<feBlend mode="normal" in="SourceGraphic" in2="BackgroundImageFix" result="shape"/>
<feGaussianBlur stdDeviation="13.2506" result="effect1_foregroundBlur_6_603"/>
</filter>
<linearGradient id="paint0_linear_6_603" x1="410.403" y1="221.739" x2="464.796" y2="253.117" gradientUnits="userSpaceOnUse">
<stop stop-color="#7ECAA6"/>
<stop offset="0.264085" stop-color="#61BDD1"/>
<stop offset="0.576639" stop-color="#CF6DDD"/>
<stop offset="0.846103" stop-color="#4061F8"/>
</linearGradient>
<linearGradient id="paint1_linear_6_603" x1="462.692" y1="211.465" x2="490.555" y2="227.539" gradientUnits="userSpaceOnUse">
<stop stop-color="#7ECAA6"/>
<stop offset="0.264085" stop-color="#61BDD1"/>
<stop offset="0.576639" stop-color="#CF6DDD"/>
<stop offset="0.846103" stop-color="#4061F8"/>
</linearGradient>
<linearGradient id="paint2_linear_6_603" x1="71.3974" y1="80.1913" x2="127.197" y2="124.412" gradientUnits="userSpaceOnUse">
<stop stop-color="#7ECAA6"/>
<stop offset="0.264085" stop-color="#61BDD1"/>
<stop offset="0.576639" stop-color="#CF6DDD"/>
<stop offset="0.846103" stop-color="#4061F8"/>
</linearGradient>
<linearGradient id="paint3_linear_6_603" x1="89.2791" y1="68.5486" x2="118.866" y2="88.1271" gradientUnits="userSpaceOnUse">
<stop stop-color="#F4F4F4"/>
<stop offset="0.479167" stop-color="white"/>
<stop offset="1" stop-color="#FCFCFC"/>
</linearGradient>
<linearGradient id="paint4_linear_6_603" x1="71.3974" y1="68.7118" x2="90.7754" y2="105.926" gradientUnits="userSpaceOnUse">
<stop stop-color="#7ECAA6"/>
<stop offset="0.264085" stop-color="#61BDD1"/>
<stop offset="0.576639" stop-color="#CF6DDD"/>
<stop offset="0.846103" stop-color="#4061F8"/>
</linearGradient>
<linearGradient id="paint5_linear_6_603" x1="129.345" y1="431.039" x2="183.531" y2="473.586" gradientUnits="userSpaceOnUse">
<stop stop-color="#7ECAA6"/>
<stop offset="0.264085" stop-color="#61BDD1"/>
<stop offset="0.576639" stop-color="#CF6DDD"/>
<stop offset="0.846103" stop-color="#4061F8"/>
</linearGradient>
<linearGradient id="paint6_linear_6_603" x1="144.925" y1="226.752" x2="296.614" y2="312.576" gradientUnits="userSpaceOnUse">
<stop stop-color="#6BF0D7"/>
<stop offset="0.458585" stop-color="#6BF0D5"/>
<stop offset="1" stop-color="#50B8AF"/>
</linearGradient>
<linearGradient id="paint7_linear_6_603" x1="144.925" y1="209.76" x2="296.614" y2="295.584" gradientUnits="userSpaceOnUse">
<stop stop-color="#59C9CA"/>
<stop offset="0.46875" stop-color="#58C8C9"/>
<stop offset="1" stop-color="#429AA0"/>
</linearGradient>
<linearGradient id="paint8_linear_6_603" x1="209.284" y1="159.254" x2="296.313" y2="278.248" gradientUnits="userSpaceOnUse">
<stop stop-color="#4EAFB5"/>
<stop offset="0.46875" stop-color="#4DB0B5"/>
<stop offset="1" stop-color="#3884A6"/>
</linearGradient>
<linearGradient id="paint9_linear_6_603" x1="209.285" y1="142.263" x2="296.313" y2="261.256" gradientUnits="userSpaceOnUse">
<stop stop-color="#5FE2BF"/>
<stop offset="1" stop-color="#276491"/>
</linearGradient>
<linearGradient id="paint10_linear_6_603" x1="209.285" y1="142.263" x2="296.313" y2="261.256" gradientUnits="userSpaceOnUse">
<stop stop-color="#5FE2BF"/>
<stop offset="1" stop-color="#276491"/>
</linearGradient>
<linearGradient id="paint11_linear_6_603" x1="173.902" y1="213.123" x2="292.924" y2="272.282" gradientUnits="userSpaceOnUse">
<stop stop-color="#62F0CD"/>
<stop offset="1" stop-color="#286592"/>
</linearGradient>
<linearGradient id="paint12_linear_6_603" x1="259.332" y1="320.882" x2="224.709" y2="320.882" gradientUnits="userSpaceOnUse">
<stop stop-color="#568DAC"/>
<stop offset="1" stop-color="#48A6B0" stop-opacity="0"/>
</linearGradient>
<linearGradient id="paint13_linear_6_603" x1="246.523" y1="321.078" x2="300.246" y2="301.207" gradientUnits="userSpaceOnUse">
<stop stop-color="#5995B0"/>
<stop offset="1" stop-color="#5995B0" stop-opacity="0"/>
</linearGradient>
<linearGradient id="paint14_linear_6_603" x1="209.494" y1="142.263" x2="296.522" y2="261.256" gradientUnits="userSpaceOnUse">
<stop stop-color="#5FE2BF"/>
<stop offset="1" stop-color="#276491"/>
</linearGradient>
<linearGradient id="paint15_linear_6_603" x1="241.249" y1="124.657" x2="241.249" y2="346.834" gradientUnits="userSpaceOnUse">
<stop stop-color="#70BBB2"/>
<stop offset="1" stop-color="#84CAC1"/>
</linearGradient>
</defs>
</svg>
